HIERARCHY
ROOT hip
{
	OFFSET 0.000000 0.000000 0.000000
	CHANNELS 6 Xposition Yposition Zposition Xrotation Zrotation Yrotation 
	JOINT abdomen
	{
		OFFSET 0.000000 3.422050 0.000000
		CHANNELS 3 Xrotation Zrotation Yrotation 
		JOINT chest
		{
			OFFSET 0.000000 8.486693 -0.684411
			CHANNELS 3 Xrotation Zrotation Yrotation 
			JOINT neck
			{
				OFFSET 0.000000 10.266162 -0.273764
				CHANNELS 3 Xrotation Zrotation Yrotation 
				JOINT head
				{
					OFFSET 0.000000 3.148285 0.000000
					CHANNELS 3 Xrotation Zrotation Yrotation 
					End Site
					{
						OFFSET 0.000000 3.148289 0.000000
					}
				}
			}
			JOINT lCollar
			{
				OFFSET 3.422053 6.707223 -0.821293
				CHANNELS 3 Yrotation Zrotation Xrotation 
				JOINT lShldr
				{
					OFFSET 3.285171 0.000000 0.000000
					CHANNELS 3 Zrotation Yrotation Xrotation 
					JOINT lForeArm
					{
						OFFSET 10.129278 0.000000 0.000000
						CHANNELS 3 Yrotation Zrotation Xrotation 
						JOINT lHand
						{
							OFFSET 8.486692 0.000000 0.000000
							CHANNELS 3 Zrotation Yrotation Xrotation 
							End Site
							{
								OFFSET 4.106464 0.000000 0.000000
							}
						}
					}
				}
			}
			JOINT rCollar
			{
				OFFSET -3.558935 6.707223 -0.821293
				CHANNELS 3 Yrotation Zrotation Xrotation 
				JOINT rShldr
				{
					OFFSET -3.148289 0.000000 0.000000
					CHANNELS 3 Zrotation Yrotation Xrotation 
					JOINT rForeArm
					{
						OFFSET -10.266159 0.000000 0.000000
						CHANNELS 3 Yrotation Zrotation Xrotation 
						JOINT rHand
						{
							OFFSET -8.349810 0.000000 0.000000
							CHANNELS 3 Zrotation Yrotation Xrotation 
							End Site
							{
								OFFSET -4.106464 0.000000 0.000000
							}
						}
					}
				}
			}
		}
	}
	JOINT lThigh
	{
		OFFSET 5.338403 -1.642589 1.368821
		CHANNELS 3 Xrotation Zrotation Yrotation 
		JOINT lShin
		{
			OFFSET -2.053232 -20.121670 0.000000
			CHANNELS 3 Xrotation Zrotation Yrotation 
			JOINT lFoot
			{
				OFFSET 0.000000 -19.300380 -1.231939
				CHANNELS 3 Xrotation Yrotation Zrotation 
				End Site
				{
					OFFSET 0.000000 -2.463878 4.653993
				}
			}
		}
	}
	JOINT rThigh
	{
		OFFSET -5.338403 -1.642589 1.368821
		CHANNELS 3 Xrotation Zrotation Yrotation 
		JOINT rShin
		{
			OFFSET 2.053232 -20.121670 0.000000
			CHANNELS 3 Xrotation Zrotation Yrotation 
			JOINT rFoot
			{
				OFFSET 0.000000 -19.300380 -1.231939
				CHANNELS 3 Xrotation Yrotation Zrotation 
				End Site
				{
					OFFSET 0.000000 -2.463878 4.653993
				}
			}
		}
	}
}
MOTION
Frames: 10
Frame Time: 0.050000
0.000000 43.528500 0.000000 0.000000 0.000000 0.000000 0.000000 0.000000 0.000000 0.000000 0.000000 0.000000 0.000000 0.000000 0.000000 0.000000 0.000000 0.000000 0.000000 0.000000 0.000000 0.000000 0.000000 0.000000 0.000000 0.000000 0.000000 0.000000 0.000000 0.000000 0.000000 0.000000 0.000000 0.000000 0.000000 0.000000 0.000000 0.000000 0.000000 0.000000 0.000000 0.000000 0.000000 0.000000 0.000000 0.000000 0.000000 0.000000 0.000000 0.000000 0.000000 0.000000 0.000000 0.000000 0.000000 0.000000 0.000000 0.000000 0.000000 0.000000 
-0.543688 5.798527 -21.443699 91.015137 -0.006128 179.993759 5.658920 -0.022565 -0.216447 -7.739328 -0.080130 -1.184586 43.998417 0.000000 0.000000 -40.001324 0.000000 0.000000 18.723421 -17.320272 9.232813 -9.656406 -78.194107 9.768288 -42.361389 -5.196157 -17.544451 -20.203146 -36.538059 -36.464596 -18.431221 17.400127 8.739181 9.455188 78.017448 9.609353 42.246662 5.129558 -17.570688 21.247524 36.225613 -35.820789 -34.789452 43.414570 7.053873 64.195488 10.486216 -7.261909 56.284569 -11.245344 19.833826 -34.784203 -43.421665 -7.089648 64.191765 -10.519451 7.249713 56.271790 11.264744 -19.870056 
-0.543688 5.798527 -21.443699 91.006363 -0.006127 179.993759 5.658921 -0.022565 -0.216447 -6.894318 -0.080113 -1.184469 43.998417 0.000000 0.000000 -43.102802 0.000000 0.000000 19.027020 -17.193459 8.670958 -9.656414 -78.194130 9.768295 -43.344364 -5.257690 -17.637495 -19.557184 -36.260818 -36.865833 -18.756445 17.269293 8.196424 9.455188 78.017448 9.609353 43.206211 5.189451 -17.659849 20.579399 35.995842 -36.242352 -34.789452 43.414570 7.053873 64.195488 10.486216 -7.261909 56.284569 -11.245344 19.833826 -34.784203 -43.421665 -7.089650 64.191765 -10.519451 7.249713 56.271790 11.264748 -19.870058 
-0.543688 5.798527 -21.443699 91.006378 -0.006127 179.993759 5.658920 -0.022565 -0.216447 -6.048801 -0.080097 -1.184353 43.998417 0.000000 0.000000 -46.230186 0.000000 0.000000 19.331833 -17.069437 8.108538 -9.656398 -78.194054 9.768279 -44.328316 -5.317667 -17.731659 -18.915745 -35.979889 -37.261875 -19.082874 17.141356 7.653043 9.455180 78.017418 9.609345 44.166691 5.247891 -17.750090 19.915142 35.762051 -36.659454 -34.789452 43.414570 7.053873 64.195488 10.486216 -7.261909 56.284569 -11.245344 19.833826 -34.784203 -43.421661 -7.089644 64.191765 -10.519451 7.249713 56.271790 11.264744 -19.870056 
-0.543688 5.798527 -21.443699 91.006378 -0.006127 179.993759 5.658920 -0.022565 -0.216447 -5.202867 -0.080084 -1.184235 43.998417 0.000000 0.000000 -49.379078 0.000000 0.000000 19.637817 -16.948244 7.545602 -9.656406 -78.194107 9.768288 -45.313118 -5.376065 -17.826925 -18.278835 -35.695332 -37.652699 -19.410448 17.016336 7.109080 9.455188 78.017448 9.609353 45.127968 5.304856 -17.841368 19.254787 35.524315 -37.072086 -34.789452 43.414570 7.053873 64.195488 10.486216 -7.261909 56.284569 -11.245344 19.833826 -34.784203 -43.421661 -7.089649 64.191765 -10.519451 7.249713 56.271786 11.264745 -19.870056 
-0.543688 5.798527 -21.443699 91.006378 -0.006127 179.993759 5.658920 -0.022565 -0.216447 -4.356611 -0.080072 -1.184118 43.998425 0.000000 0.000000 -52.544907 0.000000 0.000000 19.944912 -16.829891 6.982195 -9.656414 -78.194153 9.768295 -46.298615 -5.432858 -17.923243 -17.646482 -35.407227 -38.038292 -19.739122 16.894257 6.564583 9.455189 78.017448 9.609353 46.089886 5.360314 -17.933641 18.598385 35.282688 -37.480160 -34.789452 43.414570 7.053873 64.195488 10.486216 -7.261909 56.284569 -11.245344 19.833826 -34.784203 -43.421665 -7.089650 64.191765 -10.519452 7.249712 56.271793 11.264747 -19.870060 
-0.543688 5.798527 -21.443699 91.006378 -0.006127 179.993759 5.658920 -0.022565 -0.216447 -3.510125 -0.080062 -1.184000 43.998413 0.000000 0.000000 -55.722954 0.000000 0.000000 20.253092 -16.714420 6.418369 -9.656399 -78.194077 9.768280 -47.284664 -5.488006 -18.020571 -17.018684 -35.115662 -38.418663 -20.068851 16.775152 6.019602 9.455187 78.017426 9.609352 47.052315 5.414238 -18.026884 17.945980 35.037258 -37.883678 -34.789452 43.414566 7.053872 64.195488 10.486216 -7.261909 56.284569 -11.245343 19.833824 -34.784203 -43.421665 -7.089645 64.191765 -10.519451 7.249712 56.271782 11.264744 -19.870056 
-0.543688 5.798527 -21.443699 91.006378 -0.006127 179.993759 5.658920 -0.022565 -0.216447 -2.663500 -0.080053 -1.183882 43.998413 0.000000 0.000000 -58.908367 0.000000 0.000000 20.562296 -16.601845 5.854171 -9.656406 -78.194107 9.768288 -48.271107 -5.541493 -18.118870 -16.395456 -34.820705 -38.793797 -20.399591 16.659046 5.474187 9.455188 78.017448 9.609353 48.015129 5.466608 -18.121054 17.297613 34.788082 -38.282585 -34.789452 43.414570 7.053873 64.195488 10.486216 -7.261909 56.284569 -11.245343 19.833824 -34.784203 -43.421665 -7.089648 64.191765 -10.519451 7.249713 56.271790 11.264744 -19.870056 
-0.543688 5.798527 -21.443699 91.006378 -0.006127 179.993759 5.658920 -0.022565 -0.216447 -1.816828 -0.080047 -1.183764 43.998417 0.000000 0.000000 -62.096233 0.000000 0.000000 20.872471 -16.492186 5.289649 -9.656406 -78.194107 9.768288 -49.257809 -5.593290 -18.218096 -15.776796 -34.522415 -39.163666 -20.731274 16.545948 4.928381 9.455188 78.017448 9.609353 48.978168 5.517396 -18.216103 16.653307 34.535217 -38.676838 -34.789452 43.414570 7.053873 64.195488 10.486216 -7.261909 56.284569 -11.245344 19.833826 -34.784203 -43.421665 -7.089648 64.191765 -10.519451 7.249713 56.271790 11.264744 -19.870056 
-0.543688 5.798527 -21.443699 91.006363 -0.006127 179.993759 5.658921 -0.022565 -0.216447 -0.970202 -0.080042 -1.183646 43.998417 0.000000 0.000000 -65.281654 0.000000 0.000000 21.183577 -16.385469 4.724855 -9.656406 -78.194107 9.768288 -50.244606 -5.643376 -18.318203 -15.162699 -34.220879 -39.528286 -21.063866 16.435894 4.382242 9.455188 78.017448 9.609353 49.941307 5.566586 -18.311998 16.013100 34.278744 -39.066425 -34.789452 43.414570 7.053873 64.195488 10.486216 -7.261909 56.284569 -11.245345 19.833828 -34.784210 -43.421669 -7.089648 64.191765 -10.519451 7.249713 56.271793 11.264746 -19.870058 
